# xmcd
#
# Track frame offsets:
#	150
#	18360
#	39247
#	58355
#	75978
#	91780
#	109976
#	127161
#	144131
#	165217
#	179402
#
# Disc length: 2619 seconds
#
# Revision: 0
# Processed by: cddbd v1.5.2PL0 Copyright (c) Steve Scherf et al.
# Submitted via: dBpowerAMP V4.0
#
DISCID=820a390b
DTITLE=Cheyenne West - cheyenne west
DYEAR=1900
DGENRE=
TTITLE0=citified
TTITLE1=poor poor pitiful me
TTITLE2=love me
TTITLE3=read my lipstick
TTITLE4=a girl thing
TTITLE5=back bone
TTITLE6=reminds me of you
TTITLE7=road not taken
TTITLE8=reckless heart
TTITLE9=you break it you own it
TTITLE10=big dreams
EXTD=Cheyenne
EXTT0=
EXTT1=
EXTT2=
EXTT3=
EXTT4=
EXTT5=
EXTT6=
EXTT7=
EXTT8=
EXTT9=
EXTT10=
PLAYORDER=
